<svg width="209" height="39" viewBox="0 0 209 39" fill="none" xmlns="http://www.w3.org/2000/svg">
<path d="M49.4971 29.5479C49.6691 29.7201 49.7363 29.8921 49.7363 30.1504C49.7363 30.4952 49.5737 30.6683 45.7861 34.4707C43.6246 36.6544 41.6539 38.5602 40.9844 38.9912L0.478516 38.9814L0.239258 38.7422C0.0862547 38.589 3.591e-05 38.3974 0 38.1963C0 37.909 0.392243 37.4967 4.1416 33.7422C6.41791 31.4628 8.40752 29.5376 8.56055 29.4609C8.81067 29.3365 11.4609 29.3172 49.2578 29.3076L49.4971 29.5479ZM82.9541 9.91309L83.1553 10.1816C83.3177 10.3922 83.3372 10.4882 83.2607 10.6797C83.2117 10.8052 82.503 11.5147 80.248 13.6006H70.1572L69.6406 13.8594C69.2963 14.0318 69.028 14.2615 68.875 14.501C68.6648 14.8263 68.627 14.9893 68.627 15.6113C68.627 16.2337 68.6647 16.3972 68.875 16.7227C69.028 16.9621 69.2964 17.192 70.1572 17.623H74.6045C78.1433 17.623 79.186 17.6517 79.7217 17.7666C80.0851 17.8432 80.7162 18.0634 81.1084 18.2549C81.6345 18.5135 82.0267 18.8111 82.5527 19.3379C83.0787 19.8646 83.3756 20.2574 83.6338 20.7842C83.825 21.1769 84.0446 21.7994 84.1211 22.1729C84.1976 22.5464 84.2646 23.0828 84.2646 23.3701C84.2646 23.6575 84.1976 24.194 84.1211 24.5674C84.0445 24.941 83.825 25.5635 83.6338 25.9561C83.3756 26.4827 83.0787 26.8756 82.5527 27.4023C82.0268 27.929 81.6344 28.2258 81.1084 28.4844C80.7162 28.6759 80.0851 28.896 79.7217 28.9727C79.1669 29.0876 77.8949 29.1162 72.5293 29.1162C66.121 29.1162 65.996 29.1164 65.8047 28.9248C65.6997 28.8195 65.6144 28.6281 65.6143 28.4941C65.6143 28.3601 65.7094 28.1489 65.8242 28.0244C65.9488 27.8997 66.6764 27.2481 68.8662 25.3809H78.9561L79.4346 25.1514C79.7311 25.0077 80.0185 24.7684 80.2002 24.5098C80.4584 24.1459 80.4873 24.0307 80.4873 23.3701C80.4873 22.7095 80.4582 22.5941 80.2002 22.2305C80.0185 21.9719 79.7308 21.7319 78.9561 21.3584H74.5088C70.97 21.3584 69.9272 21.3298 69.3916 21.2148C69.0186 21.1382 68.397 20.9181 68.0049 20.7266C67.4788 20.468 67.0964 20.1799 66.5703 19.6436C66.1592 19.2319 65.7191 18.6674 65.5469 18.3418C65.3748 18.0258 65.1548 17.4224 65.04 17.001C64.9348 16.5796 64.8486 15.9561 64.8486 15.6113C64.8487 15.2664 64.9349 14.6439 65.04 14.2227C65.1548 13.8013 65.3748 13.1978 65.5469 12.8818C65.7191 12.5562 66.1591 11.9908 66.5703 11.5791C67.0962 11.0429 67.4789 10.7556 68.0049 10.4971C68.3969 10.3056 68.9994 10.0857 69.3438 10.0186C69.8507 9.90362 71.1899 9.88435 82.9541 9.91309ZM117.684 9.86523C118.946 9.85566 119.148 9.88465 119.291 10.0283C119.444 10.1916 119.454 10.7892 119.482 17.8818C119.511 25.1093 119.52 25.5723 119.683 25.7354C119.845 25.8982 120.257 25.9082 132.997 25.9561L133.169 26.1758C133.265 26.2907 133.342 26.4636 133.332 26.5498C133.332 26.6457 133.178 26.9039 132.987 27.124C132.796 27.3539 132.299 27.8903 131.132 29.1162H123.748C116.556 29.1258 116.345 29.1168 115.876 28.7529V19.5098C115.876 10.5779 115.886 10.258 116.058 10.0664C116.23 9.87487 116.335 9.86524 117.684 9.86523ZM148.157 9.89355H148.16C154.985 9.9127 154.996 9.91343 155.521 10.124C155.808 10.2485 156.278 10.5449 156.564 10.7939C156.899 11.1004 157.176 11.4646 157.674 12.499L157.731 28.7812L157.512 28.9531C157.32 29.0968 157.1 29.1258 155.876 29.1162C154.604 29.1162 154.45 29.0972 154.278 28.9248C154.097 28.7429 154.087 28.6082 154.087 25.4004C154.087 22.6611 154.068 22.038 153.953 21.8848C153.82 21.6941 153.689 21.694 142.368 21.6465L142.274 21.6455L142.064 21.8848C141.844 22.1242 141.845 22.1342 141.845 25.4287C141.845 28.6076 141.835 28.7429 141.653 28.9248C141.481 29.0972 141.328 29.1162 140.046 29.1162C138.831 29.1258 138.611 29.0973 138.2 28.7812L138.258 12.499L138.478 12.0205C138.602 11.7523 138.842 11.3689 139.014 11.1582C139.186 10.9475 139.54 10.6411 139.798 10.4688C140.056 10.2964 140.505 10.0952 140.792 10.0186C141.242 9.89404 142.332 9.8744 148.157 9.89355ZM182.973 10.124C183.164 10.392 183.174 10.494 183.164 28.6377L182.925 28.877C182.695 29.1164 182.676 29.1162 179.481 29.1162L173.81 22.5078C168.654 16.4932 168.119 15.8995 167.86 15.8994C167.66 15.8994 167.516 15.9754 167.382 16.1572C167.191 16.4254 167.181 16.5408 167.19 28.8291L166.971 28.9727C166.808 29.0876 166.454 29.1162 165.373 29.1162C164.293 29.1162 163.939 29.0875 163.557 28.8291L163.527 10.1621L163.757 10.0088C163.939 9.89387 164.293 9.86524 165.564 9.86523C166.434 9.86523 167.189 9.90315 167.248 9.94141C167.305 9.97972 169.735 12.8534 172.643 16.3301C175.55 19.8068 178.085 22.8145 178.276 23.0156C178.477 23.2262 178.707 23.3701 178.831 23.3701C178.955 23.3701 179.137 23.2831 179.242 23.1777C179.433 22.9863 179.434 22.8602 179.434 16.6943C179.424 10.5071 179.434 10.392 179.816 9.86523H182.781L182.973 10.124ZM205.976 9.91309L206.454 10.1328C206.712 10.2573 207.094 10.4686 207.305 10.6123C207.506 10.7559 207.831 11.091 208.013 11.3496C208.204 11.6177 208.434 12.0773 208.529 12.3838C208.692 12.8914 208.701 13.5242 208.701 20.832C208.701 28.605 208.702 28.7334 208.511 28.9248C208.339 29.0972 208.194 29.1162 205.354 29.1162L205.163 28.8574C204.972 28.5989 204.962 28.465 204.972 25.3145C204.972 22.1538 204.962 22.0189 204.78 21.8369C204.589 21.6454 204.463 21.6455 198.802 21.6455C193.142 21.6455 193.015 21.6456 192.824 21.8369C192.642 22.0189 192.633 22.1538 192.633 25.3623C192.633 28.6646 192.623 28.6853 192.413 28.9053C192.212 29.1064 192.135 29.1258 189.285 29.1162L189.084 28.8574C188.893 28.5896 188.893 28.5273 188.922 20.6396V20.6279C188.951 12.7201 188.951 12.6904 189.161 12.1641C189.276 11.8768 189.572 11.4075 189.83 11.1201C190.079 10.8424 190.481 10.4972 190.72 10.3535C190.959 10.2194 191.342 10.0563 191.581 9.98926C191.907 9.90314 193.757 9.88436 205.976 9.91309ZM107.172 9.91309L107.698 10.1523C107.985 10.296 108.378 10.5163 108.56 10.6504C108.741 10.7846 109.057 11.1296 109.248 11.4072C109.439 11.6946 109.669 12.1639 109.755 12.4512C109.879 12.9109 109.898 13.8118 109.851 26.3867L109.544 27.0098C109.343 27.431 109.066 27.795 108.684 28.1396C108.368 28.4365 107.909 28.7425 107.603 28.8574C107.077 29.0681 107.047 29.0684 92.8252 29.0684L92.251 28.8389C91.8494 28.676 91.5049 28.4361 91.0938 28.0244C90.6826 27.6127 90.4438 27.2677 90.0518 26.291V19.4912C90.0518 12.7212 90.0514 12.6905 90.2617 12.1641C90.3765 11.8768 90.6734 11.4075 90.9316 11.1201C91.1803 10.8424 91.5822 10.4974 91.8213 10.3633C92.0604 10.2197 92.4234 10.0563 92.6338 9.98926C92.9303 9.90306 94.6808 9.87478 107.172 9.91309ZM99.9512 13.3223C96.4229 13.3223 95.3415 13.3516 95.1211 13.4473C94.9585 13.5143 94.6905 13.6964 94.5088 13.8496C94.3366 14.0029 94.0972 14.3 93.9824 14.5107C93.7913 14.8839 93.7822 15.0004 93.7822 19.2988V23.7051C94.1551 24.4327 94.413 24.7585 94.5947 24.8926C94.7765 25.0267 95.0734 25.1898 95.2646 25.2568C95.5048 25.3429 96.8252 25.3711 99.999 25.3711C104.399 25.3807 104.399 25.3814 104.877 25.1611C105.135 25.0367 105.479 24.7872 105.642 24.5957C105.804 24.4041 105.987 24.0879 106.044 23.8867C106.13 23.6084 106.168 22.363 106.168 19.2705C106.168 15.6597 106.149 14.9793 106.015 14.6729C105.938 14.4813 105.737 14.175 105.565 13.9932C105.393 13.8208 105.087 13.5909 104.877 13.4951C104.523 13.3323 104.179 13.3127 99.9512 13.3223ZM20.7266 14.5586C36.4318 14.5682 41.0327 14.5868 41.1953 14.6826C41.3111 14.7506 43.2813 16.6754 45.5762 18.9639C49.3823 22.7657 49.7458 23.159 49.7363 23.4463C49.7363 23.6378 49.6501 23.8388 49.2676 24.2314H29.0762C12.0132 24.2314 8.84691 24.2126 8.5791 24.0977C8.40467 24.0187 6.52153 22.2092 4.1416 19.8164C0.345078 16.0051 0.000325528 15.6311 0.00976562 15.3438C0.00976562 15.1426 0.0958026 14.9415 0.239258 14.7979L0.46875 14.5586H20.7266ZM147.918 12.9395C145.145 12.9395 143.768 12.9781 143.471 13.0547C143.222 13.1217 142.858 13.3038 142.657 13.457C142.437 13.6198 142.198 13.9451 142.064 14.2227C141.864 14.6728 141.845 14.8266 141.845 16.5889C141.845 18.36 141.854 18.4949 142.035 18.6768C142.226 18.8683 142.351 18.8682 147.966 18.8682C153.578 18.8682 153.704 18.8681 153.896 18.6768C154.077 18.4948 154.087 18.3702 154.068 16.4932V16.4893C154.04 14.5202 154.039 14.51 153.781 14.0508C153.628 13.8018 153.35 13.4954 153.159 13.3613C152.958 13.2368 152.604 13.083 152.365 13.0352C152.106 12.9777 150.327 12.9395 147.918 12.9395ZM198.735 12.9395C195.952 12.9395 194.555 12.9781 194.259 13.0547C194.01 13.1217 193.647 13.3038 193.446 13.457C193.226 13.6198 192.986 13.9449 192.853 14.2227C192.652 14.6728 192.633 14.8266 192.633 16.5889C192.633 18.3606 192.643 18.4948 192.824 18.6768C193.015 18.8682 193.141 18.8682 198.802 18.8682C204.464 18.8682 204.589 18.8683 204.78 18.6768C204.962 18.4948 204.971 18.3699 204.952 16.4932C204.923 14.6925 204.904 14.4718 204.723 14.127C204.617 13.9162 204.359 13.61 204.148 13.4473C203.938 13.2845 203.556 13.1024 203.278 13.0449C202.924 12.9683 201.509 12.9299 198.735 12.9395ZM49.4971 0.239258C49.65 0.392446 49.7363 0.584104 49.7363 0.785156C49.7363 1.07249 49.3441 1.49454 45.5947 5.24902C43.3287 7.52772 41.3209 9.45256 41.1572 9.53027C40.8799 9.65478 38.3545 9.67383 20.7559 9.67383C4.88173 9.67383 0.623586 9.64456 0.430664 9.54883C0.29678 9.49137 0.15311 9.33837 0.0957031 9.21387C0.0479289 9.09905 9.82058e-05 8.90772 0 8.7832C0 8.62996 1.13826 7.432 4.09375 4.46289C6.34137 2.2122 8.31181 0.277415 8.46484 0.181641C8.7423 0.00937148 9.31689 5.48584e-08 49.2578 0L49.4971 0.239258Z" fill="white"/>
</svg>
