<svg width="28" height="28" viewBox="0 0 28 28" fill="none" xmlns="http://www.w3.org/2000/svg">
<rect width="28" height="28" rx="14" fill="#2775CA"/>
<path d="M17.1934 4.01071C21.4371 5.34507 24.4999 9.31486 24.5 13.9961C24.5 18.6882 21.4371 22.6476 17.1934 24.0039C16.8765 24.102 16.6252 23.9166 16.625 23.5888V22.7685C16.625 22.5279 16.7674 22.2982 16.9971 22.2216C20.3439 20.9966 22.75 17.7693 22.75 14.0068C22.7499 10.2336 20.3547 7.01794 16.9971 5.79294C16.7893 5.71637 16.625 5.46481 16.625 5.24606V4.42575C16.6251 4.09777 16.8872 3.91244 17.1934 4.01071ZM10.8066 3.98825C11.1237 3.89006 11.375 4.07626 11.375 4.40426V5.22458C11.3748 5.44323 11.2106 5.69494 11.0029 5.77145C7.64528 7.00747 5.25 10.2337 5.25 13.9961C5.25001 17.7694 7.64524 20.9849 11.0029 22.2099C11.2107 22.2865 11.3749 22.5381 11.375 22.7568V23.5879C11.375 23.9159 11.1127 24.102 10.8066 24.0039C6.5629 22.6476 3.50001 18.6882 3.5 13.9961C3.5 9.31481 6.56289 5.3445 10.8066 3.98825ZM14.4375 6.99606C14.6781 6.99606 14.875 7.19296 14.875 7.43356V8.82223C16.2859 9.07379 17.1832 9.87263 17.4785 11.207C17.5332 11.4586 17.3357 11.6884 17.0732 11.6884H16.1553C15.9584 11.6884 15.7939 11.557 15.7393 11.3711C15.4877 10.5289 14.8859 10.1572 13.8359 10.1572C12.6769 10.1573 12.0754 10.7147 12.0752 11.5019C12.0752 12.3332 12.4145 12.7494 14.1973 13.0009C16.6034 13.3291 17.8506 14.0182 17.8506 16.0634C17.8505 17.6165 16.6904 18.8738 14.8857 19.1582V20.5586H14.875C14.875 20.7992 14.6781 20.9961 14.4375 20.9961H13.5625C13.322 20.996 13.125 20.7991 13.125 20.5586V19.1806C11.2111 18.9181 10.2819 17.857 10.0303 16.3916C9.98652 16.14 10.183 15.9209 10.4346 15.9209H11.4297C11.6375 15.9209 11.8127 16.0746 11.8564 16.2715C12.0424 17.1354 12.5461 17.8027 14.0771 17.8027C15.2035 17.8026 16.0126 17.1679 16.0127 16.2275C16.0127 15.2869 15.5424 14.9257 13.8799 14.6523C11.4299 14.3242 10.2705 13.58 10.2705 11.666C10.2707 10.1897 11.3972 9.03067 13.125 8.79001V7.43356C13.125 7.19303 13.322 6.99616 13.5625 6.99606H14.4375Z" fill="white"/>
</svg>
