<svg width="28" height="28" viewBox="0 0 28 28" fill="none" xmlns="http://www.w3.org/2000/svg">
<rect width="28" height="28" rx="14" fill="#26A17B"/>
<path fill-rule="evenodd" clip-rule="evenodd" d="M15.7087 10.0085V12.0782L15.711 12.0805C19.5548 12.2574 22.4444 13.0213 22.4444 13.9329C22.4444 14.8469 19.5548 15.6085 15.711 15.7854V22.4203H12.286V15.7854C8.4377 15.6062 5.54138 14.8446 5.54138 13.9307C5.54138 13.0168 8.43546 12.2552 12.286 12.0782V10.0085H7.54842V6.85229H20.4463V10.0085H15.7087ZM15.7089 15.2164V15.2187V15.2209C19.1025 15.0686 21.6359 14.4772 21.6359 13.7694C21.6359 13.0616 19.1047 12.4702 15.7089 12.3179V14.6296C15.6103 14.6385 15.0817 14.6833 14.0244 14.6833C13.1441 14.6833 12.5057 14.6452 12.2839 14.6296V12.3156C8.88362 12.4657 6.34347 13.0593 6.34347 13.7672C6.34347 14.4772 8.88138 15.0686 12.2839 15.2187V15.2164C12.5035 15.2276 13.1239 15.2523 14.0087 15.2523C15.1153 15.2523 15.6126 15.2232 15.7089 15.2164Z" fill="white"/>
</svg>
